<svg xmlns="http://www.w3.org/2000/svg" xmlns:xlink="http://www.w3.org/1999/xlink" width="215" zoomAndPan="magnify" viewBox="0 0 161.25 68.999997" height="92" preserveAspectRatio="xMidYMid meet" version="1.0"><defs><clipPath id="d3949b1587"><path d="M 0 0.160156 L 159.757812 0.160156 L 159.757812 68.09375 L 0 68.09375 Z M 0 0.160156 " clip-rule="nonzero"/></clipPath></defs><path fill="#346a5e" d="M 108.011719 32.835938 L 106.839844 32.601562 C 106.957031 32.015625 107.191406 31.429688 107.425781 30.84375 C 107.542969 30.609375 107.777344 30.136719 108.128906 30.019531 C 108.601562 29.785156 109.070312 29.785156 109.539062 29.902344 C 109.773438 29.902344 109.890625 30.019531 110.125 29.902344 C 110.359375 29.902344 110.476562 29.550781 110.710938 29.082031 C 110.828125 28.847656 110.945312 28.730469 111.0625 28.496094 C 111.296875 28.144531 111.53125 27.910156 111.765625 27.675781 C 112.117188 27.207031 112.46875 26.855469 112.585938 26.503906 L 112.703125 24.625 L 113.40625 25.917969 C 113.523438 25.800781 113.761719 25.683594 113.878906 25.566406 C 113.996094 25.449219 114.347656 25.214844 114.347656 25.214844 C 114.347656 25.214844 114.347656 25.09375 114.347656 25.09375 L 114.347656 20.992188 L 115.167969 23.6875 C 115.285156 23.570312 115.402344 23.453125 115.402344 23.453125 L 115.871094 23.21875 L 116.222656 21.929688 L 117.160156 23.570312 C 117.160156 23.453125 117.160156 23.335938 117.160156 23.21875 L 117.042969 22.046875 L 118.332031 22.75 C 118.449219 22.632812 118.449219 22.515625 118.566406 22.398438 L 119.507812 23.101562 C 119.390625 23.21875 119.273438 23.453125 119.273438 23.6875 L 119.15625 24.625 L 118.214844 24.15625 C 118.097656 24.507812 117.980469 24.976562 117.628906 25.214844 L 117.160156 25.917969 L 116.574219 24.976562 L 116.222656 26.152344 L 115.753906 25.449219 C 115.753906 25.449219 115.753906 25.449219 115.753906 25.566406 C 115.636719 25.683594 115.519531 25.800781 115.285156 25.917969 C 115.050781 26.269531 114.699219 26.503906 114.347656 26.738281 C 114.113281 26.855469 113.761719 27.089844 113.761719 27.207031 L 114.230469 30.257812 L 113.054688 28.144531 C 112.820312 28.378906 112.703125 28.613281 112.46875 28.847656 C 112.234375 29.082031 112 29.316406 111.882812 29.550781 C 111.765625 29.667969 111.648438 29.785156 111.648438 30.019531 C 111.414062 30.492188 111.0625 31.195312 110.242188 31.3125 C 109.890625 31.429688 109.539062 31.3125 109.1875 31.3125 C 108.953125 31.3125 108.71875 31.195312 108.71875 31.3125 C 108.71875 31.3125 108.601562 31.429688 108.480469 31.664062 C 108.246094 31.898438 108.128906 32.367188 108.011719 32.835938 Z M 108.011719 32.835938 " fill-opacity="1" fill-rule="nonzero"/><g clip-path="url(#d3949b1587)"><path fill="#02fac6" d="M 159.851562 68.019531 L 71.1875 68.019531 L 70.25 66.378906 L 0 67.316406 L 10.203125 59.222656 L 10.4375 56.527344 L 21.460938 49.488281 L 12.078125 49.488281 L 12.546875 46.675781 L 15.011719 46.675781 L 14.425781 43.507812 L 16.066406 43.507812 L 14.308594 42.101562 L 36.589844 29.316406 L 36.707031 29.316406 C 38.117188 29.316406 71.65625 30.019531 79.398438 45.855469 C 81.625 39.285156 90.890625 13.132812 101.328125 3.632812 L 101.445312 3.515625 L 115.988281 0.46875 L 101.09375 24.507812 L 114.582031 15.714844 L 135.925781 20.171875 L 106.253906 39.402344 L 128.535156 42.21875 L 148.355469 53.007812 L 138.738281 53.828125 L 151.289062 60.632812 L 149.53125 61.570312 L 152.578125 62.859375 L 154.222656 64.5 Z M 71.773438 66.847656 L 155.980469 66.847656 L 153.632812 65.203125 L 151.992188 63.679688 L 146.949219 61.6875 L 148.945312 60.515625 L 134.871094 52.890625 L 144.488281 52.070312 L 128.183594 43.15625 L 102.96875 39.988281 L 132.992188 20.640625 L 114.933594 16.769531 L 97.457031 28.027344 L 113.523438 2.226562 L 102.265625 4.570312 C 90.890625 15.128906 80.453125 47.261719 80.335938 47.613281 L 79.75 49.253906 L 79.164062 47.613281 C 73.300781 31.664062 39.640625 30.492188 37.058594 30.375 L 16.535156 42.101562 L 19.585938 44.445312 L 15.949219 44.445312 L 16.535156 47.613281 L 13.722656 47.613281 L 13.605469 48.082031 L 25.566406 48.082031 L 11.609375 57.113281 L 11.375 59.691406 L 3.402344 66.027344 L 70.953125 65.203125 Z M 71.773438 66.847656 " fill-opacity="1" fill-rule="nonzero"/></g><path fill="#02fac6" d="M 16.066406 59.222656 C 33.777344 55 54.417969 53.59375 71.421875 60.867188 C 69.195312 60.277344 66.964844 59.457031 64.621094 58.988281 C 48.789062 55.472656 32.132812 56.878906 16.066406 59.222656 Z M 16.066406 59.222656 " fill-opacity="1" fill-rule="nonzero"/><path fill="#02fac6" d="M 79.75 47.496094 C 79.398438 51.835938 78.8125 56.527344 80.21875 60.632812 L 79.515625 60.632812 C 84.792969 47.378906 91.125 34.59375 99.21875 22.867188 C 101.914062 18.996094 104.847656 15.246094 108.246094 11.84375 C 105.199219 15.480469 102.382812 19.347656 99.804688 23.21875 C 96.050781 29.082031 92.414062 35.535156 89.25 41.75 C 85.847656 48.316406 82.679688 55 79.75 61.804688 C 77.988281 57.230469 79.046875 52.1875 79.75 47.496094 Z M 79.75 47.496094 " fill-opacity="1" fill-rule="nonzero"/><path fill="#02fac6" d="M 17.710938 45.855469 C 34.949219 44.445312 53.363281 45.855469 68.84375 54.0625 C 66.730469 53.242188 64.855469 52.421875 62.742188 51.835938 C 48.203125 47.144531 32.839844 45.972656 17.710938 45.855469 Z M 17.710938 45.855469 " fill-opacity="1" fill-rule="nonzero"/><path fill="#02fac6" d="M 17.945312 43.976562 C 21.34375 43.390625 24.863281 43.15625 28.382812 43.390625 C 31.78125 43.625 35.417969 43.976562 38.585938 45.738281 C 31.78125 44.09375 24.863281 44.679688 17.945312 43.976562 Z M 17.945312 43.976562 " fill-opacity="1" fill-rule="nonzero"/><path fill="#02fac6" d="M 23.574219 48.785156 C 28.265625 48.082031 33.074219 47.964844 37.882812 48.082031 C 42.570312 48.433594 47.730469 48.667969 51.71875 51.367188 L 50.898438 51.015625 C 46.792969 49.488281 42.21875 49.488281 37.882812 49.253906 C 33.074219 49.136719 28.265625 49.019531 23.574219 48.785156 Z M 23.574219 48.785156 " fill-opacity="1" fill-rule="nonzero"/><path fill="#02fac6" d="M 21.109375 54.179688 C 37.410156 50.308594 57.113281 49.136719 72.125 57.816406 C 74.238281 59.105469 76.230469 60.75 77.988281 62.507812 C 62.859375 49.839844 39.523438 51.484375 21.109375 54.179688 Z M 21.109375 54.179688 " fill-opacity="1" fill-rule="nonzero"/><path fill="#02fac6" d="M 23.574219 62.390625 C 31.078125 62.15625 39.054688 62.273438 46.558594 62.390625 L 58.050781 62.625 C 61.804688 62.507812 65.792969 63.09375 69.546875 62.390625 C 65.910156 63.5625 61.921875 63.328125 58.050781 63.5625 C 46.558594 63.796875 35.066406 63.445312 23.574219 62.390625 Z M 23.574219 62.390625 " fill-opacity="1" fill-rule="nonzero"/><path fill="#02fac6" d="M 81.976562 60.867188 C 90.890625 46.207031 104.964844 34.359375 121.382812 29.082031 C 119.507812 30.019531 117.511719 30.84375 115.636719 31.898438 C 102.265625 38.699219 90.890625 48.902344 81.976562 60.867188 C 81.976562 60.75 81.976562 60.75 81.976562 60.867188 Z M 81.976562 60.867188 " fill-opacity="1" fill-rule="nonzero"/><path fill="#02fac6" d="M 99.335938 26.386719 C 96.636719 31.3125 93.589844 36.472656 90.890625 41.398438 C 88.898438 45.148438 86.785156 48.902344 85.261719 52.890625 C 84.792969 54.179688 84.324219 55.589844 84.558594 56.996094 C 82.914062 49.722656 94.644531 32.484375 99.335938 26.386719 Z M 99.335938 26.386719 " fill-opacity="1" fill-rule="nonzero"/><path fill="#02fac6" d="M 81.976562 63.09375 C 89.835938 48.667969 115.636719 49.722656 129.710938 51.953125 C 132.171875 52.304688 134.519531 52.890625 136.980469 53.359375 C 132.054688 52.773438 127.246094 52.1875 122.4375 51.953125 C 109.65625 51.367188 89.71875 51.484375 81.976562 63.09375 Z M 81.976562 63.09375 " fill-opacity="1" fill-rule="nonzero"/><path fill="#02fac6" d="M 85.378906 62.390625 C 91.828125 55.589844 102.03125 54.179688 111.0625 53.945312 C 122.90625 53.945312 134.636719 56.761719 145.660156 60.75 C 135.574219 58.167969 125.371094 55.707031 114.933594 55.234375 C 105.316406 54.765625 93 55.707031 85.378906 62.390625 Z M 85.378906 62.390625 " fill-opacity="1" fill-rule="nonzero"/><path fill="#02fac6" d="M 84.089844 65.558594 C 93 53.59375 122.554688 56.878906 135.808594 59.222656 C 138.269531 59.691406 140.851562 60.160156 143.3125 60.75 C 138.269531 60.160156 133.109375 59.339844 128.066406 58.988281 C 116.574219 57.933594 92.0625 56.175781 84.089844 65.558594 Z M 84.089844 65.558594 " fill-opacity="1" fill-rule="nonzero"/><path fill="#02fac6" d="M 87.253906 65.558594 C 91.242188 62.625 96.167969 61.21875 100.976562 60.277344 C 111.648438 58.519531 122.90625 59.925781 133.226562 62.625 C 138.386719 63.210938 143.78125 64.382812 148.824219 63.09375 C 147.652344 63.679688 146.246094 63.914062 144.957031 64.03125 C 140.96875 64.382812 136.980469 64.03125 132.992188 63.5625 C 129.125 62.742188 125.253906 61.921875 121.382812 61.453125 C 110.125 60.160156 97.574219 59.808594 87.253906 65.558594 Z M 87.253906 65.558594 " fill-opacity="1" fill-rule="nonzero"/><path fill="#02fac6" d="M 83.621094 67.902344 C 79.046875 63.796875 74.824219 67.667969 74.707031 67.902344 L 73.886719 67.082031 C 73.886719 67.082031 79.046875 62.273438 84.441406 67.082031 Z M 83.621094 67.902344 " fill-opacity="1" fill-rule="nonzero"/><path fill="#02fac6" d="M 73.886719 55 C 72.710938 54.414062 71.890625 53.476562 71.65625 52.304688 C 70.835938 52.421875 69.898438 51.71875 69.546875 51.015625 C 69.195312 50.546875 68.609375 50.191406 68.492188 50.308594 L 68.136719 51.484375 L 66.496094 49.019531 L 65.089844 49.253906 L 64.972656 48.667969 C 64.855469 48.316406 64.738281 48.082031 64.621094 47.730469 C 63.800781 48.199219 62.625 48.082031 61.804688 47.847656 L 42.21875 43.273438 C 39.640625 42.6875 36.707031 41.984375 33.894531 42.570312 L 33.660156 41.398438 C 36.589844 40.8125 39.757812 41.515625 42.453125 42.101562 L 62.039062 46.675781 C 63.214844 46.910156 63.917969 46.910156 64.269531 46.441406 L 64.738281 45.855469 L 65.207031 46.441406 C 65.558594 46.792969 65.792969 47.261719 66.027344 47.847656 L 67.082031 47.730469 L 68.019531 49.253906 C 68.136719 49.253906 68.136719 49.253906 68.257812 49.136719 C 69.078125 49.019531 70.015625 49.722656 70.484375 50.429688 C 70.835938 50.898438 71.421875 51.132812 71.539062 51.132812 L 72.476562 47.496094 L 72.59375 51.25 C 72.59375 52.421875 73.417969 53.476562 74.355469 53.945312 Z M 73.886719 55 " fill-opacity="1" fill-rule="nonzero"/><path fill="#02fac6" d="M 70.132812 47.847656 C 69.546875 47.261719 68.726562 46.792969 67.902344 46.441406 C 63.09375 44.210938 57.933594 42.6875 52.773438 41.867188 L 52.304688 41.75 C 49.960938 41.398438 47.613281 41.046875 45.738281 39.519531 C 45.621094 39.402344 45.503906 39.285156 45.386719 39.167969 C 45.035156 38.816406 44.683594 38.582031 44.332031 38.464844 C 43.980469 38.347656 43.628906 38.464844 43.277344 38.464844 L 43.160156 38.464844 C 39.054688 38.933594 34.714844 37.878906 31.3125 35.535156 L 32.015625 34.59375 C 35.183594 36.824219 39.171875 37.761719 43.042969 37.292969 L 43.160156 37.292969 C 43.628906 37.175781 44.097656 37.175781 44.683594 37.292969 C 45.386719 37.410156 45.855469 37.878906 46.207031 38.230469 C 46.324219 38.347656 46.441406 38.464844 46.558594 38.582031 C 48.085938 39.871094 50.3125 40.222656 52.539062 40.578125 L 53.007812 40.695312 C 58.40625 41.515625 63.566406 43.039062 68.492188 45.386719 C 69.429688 45.855469 70.25 46.324219 71.070312 47.027344 Z M 70.132812 47.847656 " fill-opacity="1" fill-rule="nonzero"/><path fill="#02fac6" d="M 71.304688 45.386719 L 70.25 44.796875 C 70.601562 44.210938 70.367188 43.273438 69.78125 42.921875 C 69.195312 42.570312 68.375 42.6875 67.902344 43.15625 L 66.964844 42.453125 C 66.964844 42.453125 66.964844 42.335938 66.964844 42.21875 C 66.847656 41.984375 66.613281 41.75 66.378906 41.632812 C 66.144531 41.515625 65.910156 41.515625 65.675781 41.398438 C 65.207031 41.28125 64.855469 41.164062 64.386719 40.929688 C 64.152344 40.8125 64.035156 40.695312 63.800781 40.460938 C 63.683594 40.34375 63.566406 40.222656 63.449219 40.222656 C 63.09375 39.988281 62.742188 39.871094 62.390625 39.753906 C 60.632812 39.167969 58.640625 38.582031 56.644531 38.816406 C 56.292969 38.816406 55.941406 38.933594 55.472656 38.699219 C 55.121094 38.582031 54.886719 38.230469 54.652344 38.113281 C 54.652344 38.113281 54.535156 37.996094 54.535156 37.996094 C 53.832031 37.292969 52.421875 37.527344 51.25 37.761719 L 49.726562 38.113281 L 50.664062 36.824219 C 50.664062 36.707031 50.429688 36.472656 50.195312 36.355469 C 50.078125 36.355469 49.960938 36.238281 49.84375 36.238281 C 49.375 36.003906 48.671875 35.886719 48.4375 35.179688 C 48.320312 35.0625 48.320312 34.828125 48.320312 34.710938 C 48.320312 34.59375 48.320312 34.59375 48.203125 34.476562 C 48.085938 34.242188 47.613281 34.242188 47.144531 34.359375 C 46.910156 34.476562 46.792969 34.59375 46.558594 34.59375 C 46.207031 34.828125 45.738281 35.0625 45.152344 35.0625 C 44.566406 35.179688 43.863281 34.945312 43.511719 34.476562 C 43.394531 34.359375 43.277344 34.125 43.160156 34.007812 L 41.28125 34.007812 L 41.28125 32.835938 L 44.449219 32.835938 L 44.214844 33.539062 C 44.214844 33.539062 44.214844 33.65625 44.214844 33.65625 C 44.332031 33.773438 44.566406 33.890625 44.800781 33.890625 C 45.152344 33.890625 45.503906 33.65625 45.855469 33.539062 C 46.089844 33.421875 46.324219 33.304688 46.558594 33.1875 C 47.496094 32.835938 48.671875 32.953125 49.140625 33.890625 C 49.257812 34.007812 49.257812 34.242188 49.257812 34.359375 C 49.257812 34.476562 49.257812 34.476562 49.375 34.59375 C 49.492188 34.828125 49.84375 34.945312 50.195312 35.0625 C 50.3125 35.0625 50.429688 35.179688 50.546875 35.179688 C 51.015625 35.417969 51.484375 35.769531 51.71875 36.355469 C 53.007812 36.121094 54.417969 36.121094 55.355469 37.058594 C 55.472656 37.175781 55.472656 37.175781 55.589844 37.292969 C 55.707031 37.410156 55.824219 37.527344 55.941406 37.644531 C 56.058594 37.644531 56.175781 37.644531 56.410156 37.644531 C 58.640625 37.410156 60.75 38.113281 62.625 38.699219 C 63.09375 38.816406 63.683594 39.050781 64.035156 39.285156 C 64.152344 39.402344 64.386719 39.519531 64.503906 39.636719 C 64.621094 39.753906 64.738281 39.871094 64.855469 39.988281 C 65.089844 40.105469 65.441406 40.222656 65.792969 40.34375 C 66.144531 40.460938 66.378906 40.460938 66.730469 40.578125 C 67.199219 40.8125 67.667969 41.164062 67.902344 41.632812 C 68.726562 41.28125 69.664062 41.398438 70.367188 41.867188 C 71.539062 42.6875 71.890625 44.210938 71.304688 45.386719 Z M 71.304688 45.386719 " fill-opacity="1" fill-rule="nonzero"/><path fill="#02fac6" d="M 93.589844 43.039062 L 92.648438 42.335938 C 93.707031 40.929688 94.410156 39.285156 94.761719 37.644531 L 95.933594 37.878906 C 95.933594 37.878906 95.933594 37.996094 96.167969 38.230469 C 96.402344 38.347656 96.988281 38.347656 97.222656 38.113281 C 97.808594 37.527344 97.808594 36.589844 97.808594 35.652344 L 97.808594 34.710938 L 98.632812 35.0625 C 98.867188 35.179688 99.21875 35.0625 99.453125 34.710938 C 99.6875 34.359375 99.804688 33.890625 99.921875 33.421875 L 100.273438 31.898438 L 100.859375 33.304688 L 101.210938 30.960938 L 102.03125 32.132812 C 102.148438 32.132812 102.734375 31.898438 102.96875 31.429688 L 104.847656 28.261719 L 105.433594 28.496094 C 105.550781 28.378906 105.550781 28.144531 105.550781 27.910156 C 105.667969 27.441406 105.785156 26.855469 106.253906 26.503906 C 106.605469 26.152344 107.074219 26.152344 107.542969 26.035156 C 107.660156 26.035156 107.777344 26.035156 107.894531 26.035156 C 108.128906 26.035156 108.246094 25.917969 108.246094 25.800781 L 107.074219 22.046875 L 109.304688 25.449219 C 109.304688 25.449219 109.304688 25.449219 109.421875 25.449219 C 109.65625 25.449219 110.007812 25.09375 110.125 24.742188 C 110.125 24.507812 110.125 24.15625 110.125 23.804688 C 110.125 23.21875 110.125 22.515625 110.476562 21.929688 L 110.945312 21.109375 L 111.53125 21.8125 C 111.765625 22.164062 112.117188 22.164062 112.46875 22.046875 C 112.820312 21.929688 113.171875 21.8125 113.289062 21.460938 L 114.464844 21.8125 C 114.230469 22.515625 113.644531 23.101562 112.820312 23.335938 C 112.351562 23.453125 111.882812 23.335938 111.53125 23.21875 C 111.53125 23.453125 111.53125 23.570312 111.53125 23.804688 C 111.53125 24.15625 111.53125 24.507812 111.53125 24.976562 C 111.414062 25.800781 110.710938 26.503906 110.007812 26.621094 C 109.890625 26.621094 109.65625 26.621094 109.539062 26.621094 C 109.304688 26.972656 108.835938 27.207031 108.480469 27.207031 C 108.363281 27.207031 108.246094 27.207031 108.011719 27.207031 C 107.777344 27.207031 107.542969 27.207031 107.425781 27.324219 C 107.308594 27.441406 107.191406 27.792969 107.191406 28.027344 C 107.074219 28.496094 106.957031 29.199219 106.371094 29.550781 L 106.136719 29.667969 L 105.785156 29.550781 L 104.378906 31.898438 C 104.027344 32.484375 103.203125 33.1875 102.5 33.1875 C 102.5 33.1875 102.5 33.1875 102.382812 33.1875 L 101.914062 37.058594 L 100.859375 34.945312 C 100.742188 35.0625 100.742188 35.179688 100.625 35.300781 C 100.273438 35.652344 99.804688 36.003906 99.21875 36.121094 C 99.21875 37.058594 98.984375 38.113281 98.277344 38.816406 C 97.574219 39.402344 96.636719 39.402344 95.933594 39.050781 C 95.113281 40.578125 94.410156 41.867188 93.589844 43.039062 Z M 93.589844 43.039062 " fill-opacity="1" fill-rule="nonzero"/><path fill="#02fac6" d="M 131.585938 54.882812 L 128.652344 48.316406 L 127.597656 49.488281 L 127.128906 49.019531 C 126.542969 48.433594 125.605469 48.667969 124.550781 48.902344 C 123.492188 49.136719 122.320312 49.371094 121.5 48.785156 L 120.328125 50.898438 L 119.742188 50.546875 C 117.628906 48.902344 114.699219 48.433594 112.117188 49.136719 L 111.882812 49.253906 L 107.074219 46.441406 C 106.605469 47.261719 105.785156 47.847656 104.964844 48.199219 L 104.261719 48.433594 L 104.378906 47.730469 C 104.378906 47.378906 104.144531 47.027344 103.910156 46.792969 C 103.910156 47.027344 103.792969 47.144531 103.675781 47.378906 C 103.320312 47.847656 102.851562 48.199219 102.382812 48.316406 L 102.03125 47.144531 C 101.914062 47.144531 101.796875 47.378906 101.796875 47.496094 C 101.796875 47.496094 101.914062 47.613281 101.914062 47.613281 C 101.914062 47.613281 101.796875 47.613281 101.5625 47.964844 L 100.859375 48.667969 L 100.15625 46.792969 L 95.933594 51.953125 L 92.882812 51.953125 L 92.882812 50.78125 L 95.464844 50.78125 L 100.625 44.445312 L 101.328125 46.558594 C 101.5625 46.441406 101.796875 46.441406 102.03125 46.441406 C 102.265625 46.441406 102.5 46.558594 102.617188 46.792969 C 102.734375 46.558594 102.851562 46.324219 102.734375 46.089844 L 102.5 45.03125 L 103.4375 45.265625 C 104.261719 45.386719 104.964844 45.972656 105.316406 46.792969 C 105.902344 46.441406 106.253906 45.972656 106.488281 45.386719 L 106.722656 44.679688 L 112.234375 47.964844 C 114.816406 47.261719 117.746094 47.847656 120.09375 49.253906 L 121.5 46.675781 L 121.96875 47.613281 C 122.320312 48.199219 123.023438 48.082031 124.316406 47.847656 C 125.371094 47.613281 126.660156 47.378906 127.597656 47.847656 L 129.007812 46.207031 L 130.53125 49.722656 C 130.53125 49.722656 130.53125 49.722656 130.648438 49.605469 C 131.351562 48.902344 132.523438 48.667969 133.578125 48.785156 C 133.933594 48.902344 134.402344 48.902344 134.753906 49.019531 C 135.574219 49.253906 136.394531 49.488281 137.214844 49.253906 L 137.566406 50.308594 C 136.511719 50.664062 135.457031 50.429688 134.519531 50.191406 C 134.167969 50.074219 133.816406 49.957031 133.460938 49.957031 C 132.757812 49.839844 131.9375 50.074219 131.46875 50.429688 C 131.234375 50.664062 131.234375 50.78125 131.234375 51.015625 Z M 131.585938 54.882812 " fill-opacity="1" fill-rule="nonzero"/><path fill="#02fac6" d="M 125.253906 46.792969 L 124.433594 46.441406 C 123.964844 46.207031 123.492188 45.855469 123.257812 45.386719 C 121.382812 45.503906 119.507812 45.386719 117.628906 44.914062 L 116.574219 45.738281 L 114.582031 43.390625 C 114.582031 43.273438 114.464844 43.273438 114.464844 43.273438 C 114.464844 43.273438 114.464844 43.390625 114.347656 43.507812 L 114.347656 43.742188 C 114.230469 44.09375 114.230469 44.5625 113.761719 44.914062 L 113.40625 45.03125 L 113.054688 44.679688 C 112.585938 44.328125 112.234375 43.859375 111.882812 43.390625 C 111.648438 43.625 111.296875 43.859375 110.945312 43.859375 C 110.59375 43.976562 110.242188 43.859375 109.890625 43.507812 C 109.773438 43.390625 109.773438 43.390625 109.65625 43.273438 C 109.65625 43.507812 109.539062 43.742188 109.421875 43.859375 C 109.1875 44.09375 108.953125 44.210938 108.601562 44.210938 C 108.246094 44.210938 107.777344 43.976562 107.542969 43.742188 C 107.425781 43.625 107.308594 43.390625 107.191406 43.273438 C 107.074219 43.15625 107.074219 43.039062 106.957031 42.921875 C 106.371094 42.335938 105.199219 43.15625 104.730469 43.742188 L 103.910156 42.921875 C 105.082031 41.867188 106.722656 41.046875 107.777344 42.101562 C 108.011719 42.335938 108.128906 42.570312 108.246094 42.6875 C 108.363281 42.804688 108.363281 42.921875 108.480469 43.039062 C 108.480469 43.039062 108.480469 43.039062 108.601562 43.15625 C 108.601562 43.039062 108.601562 43.039062 108.601562 42.921875 C 108.601562 42.570312 108.71875 41.867188 109.304688 41.75 C 110.007812 41.632812 110.359375 42.21875 110.476562 42.570312 C 110.476562 42.6875 110.59375 42.804688 110.59375 42.804688 C 110.710938 42.804688 111.0625 42.570312 111.296875 42.101562 L 111.882812 40.929688 L 112.351562 42.101562 C 112.46875 42.570312 112.703125 42.921875 113.054688 43.273438 L 113.054688 43.15625 C 113.171875 42.453125 113.761719 41.867188 114.582031 42.101562 C 114.816406 42.21875 115.167969 42.335938 115.285156 42.6875 L 116.457031 44.09375 L 117.042969 43.625 L 117.277344 43.742188 C 119.15625 44.210938 121.148438 44.445312 123.140625 44.210938 L 123.609375 44.210938 L 123.730469 44.5625 C 123.847656 44.679688 123.847656 44.914062 123.964844 45.03125 C 124.316406 44.5625 124.902344 44.210938 125.488281 44.210938 C 126.191406 44.210938 126.894531 44.445312 127.597656 45.03125 L 126.894531 45.972656 C 126.425781 45.621094 125.957031 45.386719 125.488281 45.386719 C 125.136719 45.386719 124.785156 45.738281 124.785156 45.972656 L 124.785156 46.792969 Z M 125.253906 46.792969 " fill-opacity="1" fill-rule="nonzero"/></svg>